<?xml version="1.0" standalone="no"?>
<!DOCTYPE svg PUBLIC "-//W3C//DTD SVG 20010904//EN"
 "http://www.w3.org/TR/2001/REC-SVG-20010904/DTD/svg10.dtd">
<svg version="1.0" xmlns="http://www.w3.org/2000/svg"
 width="300.000000pt" height="85.000000pt" viewBox="0 0 300.000000 85.000000"
 preserveAspectRatio="xMidYMid meet">

<g transform="translate(0.000000,85.000000) scale(0.100000,-0.100000)"
fill="#000000" stroke="none">
<path d="M4 828 c3 -13 6 -202 6 -420 l0 -398 1495 0 1495 0 0 420 0 420
-1501 0 -1501 0 6 -22z m856 -398 l0 -390 -410 0 -410 0 0 390 0 390 410 0
410 0 0 -390z m340 35 c17 16 30 25 30 20 0 -12 -52 -65 -64 -65 -16 0 -56 42
-56 59 0 10 9 6 30 -14 l30 -29 30 29z m270 -30 c0 -30 -4 -55 -10 -55 -11 0
-14 93 -3 103 12 12 13 8 13 -48z m90 -6 c0 -27 -4 -49 -10 -49 -5 0 -10 9
-10 20 0 15 -7 20 -25 20 -14 0 -25 5 -25 10 0 6 11 10 25 10 20 0 25 5 25 26
0 14 4 23 10 19 6 -3 10 -28 10 -56z m67 -21 c-2 -18 -4 -6 -4 27 0 33 2 48 4
33 2 -15 2 -42 0 -60z m73 62 c11 -11 20 -28 20 -37 0 -24 -30 -53 -54 -53
-18 1 -17 3 7 16 34 18 34 53 0 70 -13 6 -20 14 -16 17 11 11 22 8 43 -13z
m170 -41 c0 -27 -4 -49 -10 -49 -5 0 -10 25 -10 56 0 34 4 53 10 49 6 -3 10
-28 10 -56z m80 6 c0 -30 -4 -55 -10 -55 -5 0 -10 9 -10 20 0 13 -7 20 -20 20
-11 0 -20 5 -20 10 0 6 9 10 20 10 13 0 20 7 20 18 0 17 8 32 17 32 2 0 3 -25
3 -55z m154 1 c28 -48 31 -56 18 -56 -9 0 -62 91 -62 104 0 15 19 -6 44 -48z
m486 -48 c0 -5 -3 -8 -7 -8 -12 0 -63 96 -56 104 6 6 62 -80 63 -96z m165 -7
c-7 -6 -105 90 -105 103 0 6 25 -14 55 -44 30 -29 52 -56 50 -59z m5 73 c0
-13 -4 -24 -10 -24 -5 0 -10 14 -10 31 0 17 4 28 10 24 6 -3 10 -17 10 -31z
m-1444 4 c-20 -28 -20 -33 0 -53 20 -20 11 -33 -11 -15 -18 15 -20 61 -3 78
20 20 30 13 14 -10z m70 -3 c15 -23 15 -27 0 -50 -17 -25 -36 -33 -36 -15 0 6
4 10 9 10 18 0 21 33 6 56 -9 13 -11 24 -5 24 5 0 17 -11 26 -25z m824 10
c-13 -16 -7 -20 35 -27 23 -4 29 -48 8 -55 -7 -3 -13 0 -13 6 0 6 5 11 11 11
5 0 7 5 4 10 -3 6 -14 10 -24 10 -27 0 -55 25 -48 44 4 9 14 16 23 16 13 0 14
-3 4 -15z m60 5 c0 -5 -4 -10 -9 -10 -6 0 -13 5 -16 10 -3 6 1 10 9 10 9 0 16
-4 16 -10z m81 -3 c-14 -17 -5 -27 24 -27 27 0 49 -24 41 -45 -3 -8 -13 -15
-23 -15 -13 0 -14 3 -5 12 17 17 15 28 -7 28 -32 0 -51 11 -51 29 0 20 8 31
23 31 5 0 4 -6 -2 -13z m59 3 c0 -5 -7 -7 -15 -4 -8 4 -15 8 -15 10 0 2 7 4
15 4 8 0 15 -4 15 -10z m-349 -50 c5 0 9 -4 9 -10 0 -5 -8 -10 -18 -10 -10 0
-23 -5 -30 -12 -17 -17 -15 -2 5 35 13 25 18 28 21 15 2 -10 8 -18 13 -18z
m455 15 c-3 -8 -1 -15 4 -15 6 0 10 -4 10 -10 0 -5 -9 -10 -19 -10 -11 0 -21
-6 -24 -12 -2 -7 -8 -10 -12 -6 -8 8 25 68 38 68 5 0 7 -7 3 -15z m-1396 -30
c0 -14 -4 -25 -10 -25 -5 0 -10 11 -10 25 0 14 5 25 10 25 6 0 10 -11 10 -25z
m110 0 c0 -14 -4 -25 -10 -25 -5 0 -10 11 -10 25 0 14 5 25 10 25 6 0 10 -11
10 -25z m1427 -12 c-3 -10 -5 -4 -5 12 0 17 2 24 5 18 2 -7 2 -21 0 -30z
m-442 -3 c3 -5 -3 -10 -14 -10 -12 0 -21 5 -21 10 0 6 6 10 14 10 8 0 18 -4
21 -10z m145 0 c0 -5 -7 -10 -15 -10 -8 0 -15 5 -15 10 0 6 7 10 15 10 8 0 15
-4 15 -10z"/>
<path d="M197 643 c-4 -3 -7 -18 -7 -33 0 -20 29 -54 128 -153 71 -70 137
-127 147 -127 18 0 257 227 276 263 6 11 6 24 -1 37 -22 40 -51 24 -165 -90
l-110 -110 -110 110 c-103 102 -137 125 -158 103z"/>
<path d="M197 403 c-4 -3 -7 -57 -7 -119 l0 -114 27 -6 c41 -11 53 15 53 119
0 48 -5 97 -10 108 -10 18 -50 26 -63 12z"/>
<path d="M670 391 c-11 -21 -14 -161 -4 -199 9 -31 53 -41 71 -17 16 23 18
187 3 216 -6 11 -21 19 -35 19 -14 0 -29 -8 -35 -19z"/>
</g>
</svg>
